<svg xmlns="http://www.w3.org/2000/svg" viewBox="0 0 64 64" role="img" aria-labelledby="bagsIconTitle">
  <title id="bagsIconTitle">Bags</title>
  <path fill="#00E94F" d="M19.36 18.74c-.92-.84-.82-2.3.2-3.01l9.48-6.57c.65-.45 1.5-.49 2.2-.1l12.1 6.72c1.16.64 1.31 2.24.29 3.09l-6.14 5.13c-.4.34-.91.54-1.44.56l-12.7.57c-.54.02-1.06-.16-1.46-.52l-2.53-2.28Z"/>
  <path fill="#00E94F" d="M32.2 25.2c10.56 0 19.12 8.62 19.12 19.26 0 10.05-7.18 15.46-19.12 15.46S13.08 54.51 13.08 44.46c0-10.64 8.56-19.26 19.12-19.26Z"/>
</svg>
