<svg width="512" height="176" viewBox="0 0 1170 511" fill="none" xmlns="http://www.w3.org/2000/svg" role="img" aria-labelledby="jito-title jito-desc">
  <title id="jito-title">Jito</title>
  <desc id="jito-desc">White Jito wordmark with transparent background, optimized for dark website backgrounds.</desc>
  <path d="M943 127 L907 135 L883 145 L852 165 L827 190 L806 222 L794 252 L788 283 L788 319 L793 346 L809 384 L829 412 L851 433 L876 450 L905 463 L923 468 L945 470 L946 472 L973 472 L975 470 L989 469 L1012 463 L1042 450 L1070 431 L1095 405 L1108 386 L1124 349 L1131 308 L1129 273 L1123 247 L1107 212 L1094 193 L1066 165 L1033 144 L1004 133 L975 127 Z M526 39 L524 41 L524 330 L530 362 L543 393 L556 413 L575 433 L595 448 L619 460 L644 467 L668 470 L754 470 L757 467 L757 390 L755 388 L674 388 L655 385 L634 374 L619 357 L612 341 L610 325 L610 216 L755 214 L757 212 L757 134 L754 131 L611 131 L609 40 L606 38 Z M318 38 L237 38 L234 42 L234 282 L230 305 L217 334 L202 354 L185 369 L170 378 L148 386 L136 388 L41 388 L38 391 L38 466 L40 469 L137 470 L183 461 L217 446 L244 428 L270 403 L294 369 L309 336 L320 286 L321 42 Z M463 161 L439 161 L438 160 L435 161 L381 161 L379 163 L379 467 L382 470 L462 470 L465 468 L465 163 Z M944 213 L976 213 L979 215 L983 215 L989 217 L1011 229 L1024 241 L1035 256 L1042 271 L1045 281 L1046 290 L1047 291 L1047 310 L1046 311 L1046 316 L1045 317 L1044 325 L1039 336 L1039 338 L1027 356 L1016 367 L1002 377 L986 384 L974 386 L969 388 L954 388 L953 387 L940 386 L920 379 L906 370 L891 356 L885 348 L879 338 L872 318 L872 312 L871 311 L871 293 L872 292 L873 279 L876 273 L877 268 L880 263 L880 261 L882 259 L884 254 L890 246 L910 227 L927 218 L936 215 L940 215 Z M380 39 L379 41 L379 122 L381 124 L463 124 L465 122 L465 41 L463 38 L382 38 Z" fill="#FFFFFF" fill-rule="evenodd" clip-rule="evenodd"/>
</svg>
