<svg xmlns="http://www.w3.org/2000/svg" viewBox="0 0 160 160" width="160" height="160">
  <defs>
    <linearGradient id="g" x1="0" y1="0" x2="1" y2="1">
      <stop offset="0" stop-color="#4DD4FF"/>
      <stop offset="1" stop-color="#2FA7FF"/>
    </linearGradient>
    <filter id="glow" x="-40%" y="-40%" width="180%" height="180%">
      <feGaussianBlur stdDeviation="4" result="b"/>
      <feMerge>
        <feMergeNode in="b"/>
        <feMergeNode in="SourceGraphic"/>
      </feMerge>
    </filter>
  </defs>
  <rect width="160" height="160" rx="32" fill="#020617"/>
  <path d="M80 22c20 14 43 12 52 16v44c0 36-26 56-52 66C54 138 28 118 28 82V38c9-4 32-2 52-16Z"
        fill="none" stroke="url(#g)" stroke-width="8" filter="url(#glow)"/>
  <path d="M64 92c0-10 8-18 16-18s16 8 16 18" fill="none" stroke="url(#g)" stroke-width="7" stroke-linecap="round"/>
  <path d="M68 98h24c2 0 3 1 3 3v18c0 2-1 3-3 3H68c-2 0-3-1-3-3v-18c0-2 1-3 3-3Z"
        fill="none" stroke="url(#g)" stroke-width="7" stroke-linejoin="round"/>
</svg>
